<mxfile host="app.diagrams.net" agent="Mozilla/5.0 (Macintosh; Intel Mac OS X 10_15_7) AppleWebKit/537.36 (KHTML, like Gecko) Chrome/129.0.0.0 Safari/537.36" version="24.7.17">
  <diagram name="Page-1" id="phf9DnkRjvYBPiEJwiXr">
    <mxGraphModel dx="1026" dy="650" grid="1" gridSize="10" guides="1" tooltips="1" connect="1" arrows="1" fold="1" page="1" pageScale="1" pageWidth="850" pageHeight="1100" math="0" shadow="0">
      <root>
        <mxCell id="0" />
        <mxCell id="1" parent="0" />
        <mxCell id="8HTdIrDG02oSPZCt0YjX-1" value="Client Back&amp;nbsp;&lt;div&gt;office user&lt;/div&gt;" style="shape=umlActor;verticalLabelPosition=bottom;verticalAlign=top;html=1;outlineConnect=0;" vertex="1" parent="1">
          <mxGeometry x="40" y="140" width="30" height="60" as="geometry" />
        </mxCell>
        <mxCell id="8HTdIrDG02oSPZCt0YjX-8" style="edgeStyle=orthogonalEdgeStyle;rounded=0;orthogonalLoop=1;jettySize=auto;html=1;entryX=0;entryY=0.5;entryDx=0;entryDy=0;" edge="1" parent="1" source="8HTdIrDG02oSPZCt0YjX-2" target="8HTdIrDG02oSPZCt0YjX-7">
          <mxGeometry relative="1" as="geometry" />
        </mxCell>
        <mxCell id="8HTdIrDG02oSPZCt0YjX-9" value="1.1 Publish Job Post" style="edgeLabel;html=1;align=center;verticalAlign=middle;resizable=0;points=[];" vertex="1" connectable="0" parent="8HTdIrDG02oSPZCt0YjX-8">
          <mxGeometry x="-0.4182" y="-2" relative="1" as="geometry">
            <mxPoint x="21" y="-3" as="offset" />
          </mxGeometry>
        </mxCell>
        <mxCell id="8HTdIrDG02oSPZCt0YjX-2" value="Client HRM System" style="whiteSpace=wrap;html=1;aspect=fixed;" vertex="1" parent="1">
          <mxGeometry x="210" y="140" width="80" height="80" as="geometry" />
        </mxCell>
        <mxCell id="8HTdIrDG02oSPZCt0YjX-4" style="edgeStyle=orthogonalEdgeStyle;rounded=0;orthogonalLoop=1;jettySize=auto;html=1;entryX=-0.012;entryY=0.375;entryDx=0;entryDy=0;entryPerimeter=0;" edge="1" parent="1">
          <mxGeometry relative="1" as="geometry">
            <mxPoint x="70" y="179" as="sourcePoint" />
            <mxPoint x="209.03999999999996" y="179" as="targetPoint" />
          </mxGeometry>
        </mxCell>
        <mxCell id="8HTdIrDG02oSPZCt0YjX-5" value="1.0 Publish Job Post" style="edgeLabel;html=1;align=center;verticalAlign=middle;resizable=0;points=[];" vertex="1" connectable="0" parent="8HTdIrDG02oSPZCt0YjX-4">
          <mxGeometry x="-0.1015" y="-1" relative="1" as="geometry">
            <mxPoint y="-2" as="offset" />
          </mxGeometry>
        </mxCell>
        <mxCell id="8HTdIrDG02oSPZCt0YjX-6" value="Rate Limiting Service" style="whiteSpace=wrap;html=1;aspect=fixed;" vertex="1" parent="1">
          <mxGeometry x="312" y="10" width="80" height="80" as="geometry" />
        </mxCell>
        <mxCell id="8HTdIrDG02oSPZCt0YjX-10" value="1.2 Check Rate Limit" style="edgeStyle=orthogonalEdgeStyle;rounded=0;orthogonalLoop=1;jettySize=auto;html=1;entryX=1;entryY=0.5;entryDx=0;entryDy=0;exitX=0.25;exitY=0;exitDx=0;exitDy=0;" edge="1" parent="1" source="8HTdIrDG02oSPZCt0YjX-7" target="8HTdIrDG02oSPZCt0YjX-6">
          <mxGeometry x="0.0074" relative="1" as="geometry">
            <mxPoint as="offset" />
          </mxGeometry>
        </mxCell>
        <mxCell id="8HTdIrDG02oSPZCt0YjX-14" style="edgeStyle=orthogonalEdgeStyle;rounded=0;orthogonalLoop=1;jettySize=auto;html=1;entryX=1;entryY=0.25;entryDx=0;entryDy=0;exitX=0;exitY=0.25;exitDx=0;exitDy=0;dashed=1;" edge="1" parent="1" source="8HTdIrDG02oSPZCt0YjX-7" target="8HTdIrDG02oSPZCt0YjX-2">
          <mxGeometry relative="1" as="geometry" />
        </mxCell>
        <mxCell id="8HTdIrDG02oSPZCt0YjX-15" value="1.3.1 Return Error&amp;nbsp;" style="edgeLabel;html=1;align=center;verticalAlign=middle;resizable=0;points=[];" vertex="1" connectable="0" parent="8HTdIrDG02oSPZCt0YjX-14">
          <mxGeometry x="-0.2593" y="1" relative="1" as="geometry">
            <mxPoint x="-14" y="-1" as="offset" />
          </mxGeometry>
        </mxCell>
        <mxCell id="8HTdIrDG02oSPZCt0YjX-19" style="edgeStyle=orthogonalEdgeStyle;rounded=0;orthogonalLoop=1;jettySize=auto;html=1;" edge="1" parent="1" source="8HTdIrDG02oSPZCt0YjX-7" target="8HTdIrDG02oSPZCt0YjX-16">
          <mxGeometry relative="1" as="geometry" />
        </mxCell>
        <mxCell id="8HTdIrDG02oSPZCt0YjX-20" value="1.4" style="edgeLabel;html=1;align=center;verticalAlign=middle;resizable=0;points=[];" vertex="1" connectable="0" parent="8HTdIrDG02oSPZCt0YjX-19">
          <mxGeometry x="0.2533" y="-2" relative="1" as="geometry">
            <mxPoint as="offset" />
          </mxGeometry>
        </mxCell>
        <mxCell id="8HTdIrDG02oSPZCt0YjX-39" style="edgeStyle=orthogonalEdgeStyle;rounded=0;orthogonalLoop=1;jettySize=auto;html=1;entryX=0;entryY=0.5;entryDx=0;entryDy=0;exitX=0.75;exitY=0;exitDx=0;exitDy=0;" edge="1" parent="1" source="8HTdIrDG02oSPZCt0YjX-7" target="8HTdIrDG02oSPZCt0YjX-11">
          <mxGeometry relative="1" as="geometry" />
        </mxCell>
        <mxCell id="8HTdIrDG02oSPZCt0YjX-40" value="1.3 Validate API Key" style="edgeLabel;html=1;align=center;verticalAlign=middle;resizable=0;points=[];" vertex="1" connectable="0" parent="8HTdIrDG02oSPZCt0YjX-39">
          <mxGeometry x="-0.456" relative="1" as="geometry">
            <mxPoint x="15" as="offset" />
          </mxGeometry>
        </mxCell>
        <mxCell id="8HTdIrDG02oSPZCt0YjX-7" value="API Gateway" style="whiteSpace=wrap;html=1;aspect=fixed;" vertex="1" parent="1">
          <mxGeometry x="425" y="140" width="80" height="80" as="geometry" />
        </mxCell>
        <mxCell id="8HTdIrDG02oSPZCt0YjX-11" value="API Key validation service" style="whiteSpace=wrap;html=1;aspect=fixed;" vertex="1" parent="1">
          <mxGeometry x="520" y="10" width="80" height="80" as="geometry" />
        </mxCell>
        <mxCell id="8HTdIrDG02oSPZCt0YjX-18" value="1.4.1 Persist Job Details" style="edgeStyle=orthogonalEdgeStyle;rounded=0;orthogonalLoop=1;jettySize=auto;html=1;" edge="1" parent="1" source="8HTdIrDG02oSPZCt0YjX-16" target="8HTdIrDG02oSPZCt0YjX-17">
          <mxGeometry relative="1" as="geometry" />
        </mxCell>
        <mxCell id="8HTdIrDG02oSPZCt0YjX-22" style="edgeStyle=orthogonalEdgeStyle;rounded=0;orthogonalLoop=1;jettySize=auto;html=1;entryX=0;entryY=0.5;entryDx=0;entryDy=0;" edge="1" parent="1" source="8HTdIrDG02oSPZCt0YjX-16" target="8HTdIrDG02oSPZCt0YjX-21">
          <mxGeometry relative="1" as="geometry" />
        </mxCell>
        <mxCell id="8HTdIrDG02oSPZCt0YjX-23" value="1.4.2 Publish&amp;nbsp;&lt;div&gt;JobPublished&amp;nbsp;&lt;div&gt;Event&lt;/div&gt;&lt;/div&gt;" style="edgeLabel;html=1;align=center;verticalAlign=middle;resizable=0;points=[];" vertex="1" connectable="0" parent="8HTdIrDG02oSPZCt0YjX-22">
          <mxGeometry x="-0.2" y="1" relative="1" as="geometry">
            <mxPoint x="10" as="offset" />
          </mxGeometry>
        </mxCell>
        <mxCell id="8HTdIrDG02oSPZCt0YjX-16" value="Job Publication Service" style="whiteSpace=wrap;html=1;aspect=fixed;" vertex="1" parent="1">
          <mxGeometry x="580" y="140" width="80" height="80" as="geometry" />
        </mxCell>
        <mxCell id="8HTdIrDG02oSPZCt0YjX-17" value="Jobs Db" style="shape=cylinder3;whiteSpace=wrap;html=1;boundedLbl=1;backgroundOutline=1;size=15;" vertex="1" parent="1">
          <mxGeometry x="590" y="280" width="60" height="80" as="geometry" />
        </mxCell>
        <mxCell id="8HTdIrDG02oSPZCt0YjX-25" value="1.5 Consume event" style="edgeStyle=orthogonalEdgeStyle;rounded=0;orthogonalLoop=1;jettySize=auto;html=1;entryX=0;entryY=0.5;entryDx=0;entryDy=0;exitX=0.5;exitY=0;exitDx=0;exitDy=0;dashed=1;" edge="1" parent="1" source="8HTdIrDG02oSPZCt0YjX-21" target="8HTdIrDG02oSPZCt0YjX-24">
          <mxGeometry x="0.0526" relative="1" as="geometry">
            <mxPoint as="offset" />
          </mxGeometry>
        </mxCell>
        <mxCell id="8HTdIrDG02oSPZCt0YjX-32" style="edgeStyle=orthogonalEdgeStyle;rounded=0;orthogonalLoop=1;jettySize=auto;html=1;entryX=0;entryY=0.5;entryDx=0;entryDy=0;exitX=0.5;exitY=1;exitDx=0;exitDy=0;dashed=1;" edge="1" parent="1" source="8HTdIrDG02oSPZCt0YjX-21" target="8HTdIrDG02oSPZCt0YjX-30">
          <mxGeometry relative="1" as="geometry" />
        </mxCell>
        <mxCell id="8HTdIrDG02oSPZCt0YjX-33" value="1.6 Consume event" style="edgeLabel;html=1;align=center;verticalAlign=middle;resizable=0;points=[];" vertex="1" connectable="0" parent="8HTdIrDG02oSPZCt0YjX-32">
          <mxGeometry x="-0.5248" y="-1" relative="1" as="geometry">
            <mxPoint as="offset" />
          </mxGeometry>
        </mxCell>
        <mxCell id="8HTdIrDG02oSPZCt0YjX-37" style="edgeStyle=orthogonalEdgeStyle;rounded=0;orthogonalLoop=1;jettySize=auto;html=1;entryX=0;entryY=0.5;entryDx=0;entryDy=0;dashed=1;" edge="1" parent="1" source="8HTdIrDG02oSPZCt0YjX-21" target="8HTdIrDG02oSPZCt0YjX-36">
          <mxGeometry relative="1" as="geometry" />
        </mxCell>
        <mxCell id="8HTdIrDG02oSPZCt0YjX-38" value="1.7 Consume event" style="edgeLabel;html=1;align=center;verticalAlign=middle;resizable=0;points=[];" vertex="1" connectable="0" parent="8HTdIrDG02oSPZCt0YjX-37">
          <mxGeometry x="-0.54" y="3" relative="1" as="geometry">
            <mxPoint x="33" y="1" as="offset" />
          </mxGeometry>
        </mxCell>
        <mxCell id="8HTdIrDG02oSPZCt0YjX-21" value="Event Broker" style="whiteSpace=wrap;html=1;aspect=fixed;" vertex="1" parent="1">
          <mxGeometry x="770" y="140" width="80" height="80" as="geometry" />
        </mxCell>
        <mxCell id="8HTdIrDG02oSPZCt0YjX-24" value="Job Listing Service" style="whiteSpace=wrap;html=1;aspect=fixed;" vertex="1" parent="1">
          <mxGeometry x="910" y="10" width="80" height="80" as="geometry" />
        </mxCell>
        <mxCell id="8HTdIrDG02oSPZCt0YjX-26" value="Listing Db" style="shape=cylinder3;whiteSpace=wrap;html=1;boundedLbl=1;backgroundOutline=1;size=15;" vertex="1" parent="1">
          <mxGeometry x="1112" y="10" width="60" height="80" as="geometry" />
        </mxCell>
        <mxCell id="8HTdIrDG02oSPZCt0YjX-27" style="edgeStyle=orthogonalEdgeStyle;rounded=0;orthogonalLoop=1;jettySize=auto;html=1;entryX=0;entryY=0.5;entryDx=0;entryDy=0;entryPerimeter=0;" edge="1" parent="1" source="8HTdIrDG02oSPZCt0YjX-24" target="8HTdIrDG02oSPZCt0YjX-26">
          <mxGeometry relative="1" as="geometry" />
        </mxCell>
        <mxCell id="8HTdIrDG02oSPZCt0YjX-28" value="1.5.1 Persist and&amp;nbsp;&lt;div&gt;Index Job&lt;/div&gt;" style="edgeLabel;html=1;align=center;verticalAlign=middle;resizable=0;points=[];" vertex="1" connectable="0" parent="8HTdIrDG02oSPZCt0YjX-27">
          <mxGeometry x="-0.4818" y="-2" relative="1" as="geometry">
            <mxPoint x="27" as="offset" />
          </mxGeometry>
        </mxCell>
        <mxCell id="8HTdIrDG02oSPZCt0YjX-29" value="Reporting Db" style="shape=cylinder3;whiteSpace=wrap;html=1;boundedLbl=1;backgroundOutline=1;size=15;" vertex="1" parent="1">
          <mxGeometry x="1112" y="280" width="60" height="80" as="geometry" />
        </mxCell>
        <mxCell id="8HTdIrDG02oSPZCt0YjX-30" value="Reporting Service" style="whiteSpace=wrap;html=1;aspect=fixed;" vertex="1" parent="1">
          <mxGeometry x="912" y="280" width="80" height="80" as="geometry" />
        </mxCell>
        <mxCell id="8HTdIrDG02oSPZCt0YjX-34" style="edgeStyle=orthogonalEdgeStyle;rounded=0;orthogonalLoop=1;jettySize=auto;html=1;entryX=0;entryY=0.5;entryDx=0;entryDy=0;entryPerimeter=0;" edge="1" parent="1" source="8HTdIrDG02oSPZCt0YjX-30" target="8HTdIrDG02oSPZCt0YjX-29">
          <mxGeometry relative="1" as="geometry" />
        </mxCell>
        <mxCell id="8HTdIrDG02oSPZCt0YjX-35" value="1.6.1 Persist in Db" style="edgeLabel;html=1;align=center;verticalAlign=middle;resizable=0;points=[];" vertex="1" connectable="0" parent="8HTdIrDG02oSPZCt0YjX-34">
          <mxGeometry x="-0.0083" y="-1" relative="1" as="geometry">
            <mxPoint as="offset" />
          </mxGeometry>
        </mxCell>
        <mxCell id="8HTdIrDG02oSPZCt0YjX-36" value="Notification Service" style="whiteSpace=wrap;html=1;aspect=fixed;" vertex="1" parent="1">
          <mxGeometry x="1000" y="140" width="80" height="80" as="geometry" />
        </mxCell>
      </root>
    </mxGraphModel>
  </diagram>
</mxfile>
